<?xml version="1.0" standalone="no"?>
<!DOCTYPE svg PUBLIC "-//W3C//DTD SVG 20010904//EN"
 "http://www.w3.org/TR/2001/REC-SVG-20010904/DTD/svg10.dtd">
<svg version="1.0" xmlns="http://www.w3.org/2000/svg"
 width="512.000000pt" height="512.000000pt" viewBox="0 0 512.000000 512.000000"
 preserveAspectRatio="xMidYMid meet">

<g transform="translate(0.000000,512.000000) scale(0.100000,-0.100000)"
fill="#000000" stroke="none">
<path d="M0 2560 l0 -2560 1365 0 1365 0 0 990 0 990 -335 0 -335 0 0 400 0
400 333 2 332 3 5 420 6 420 28 90 c77 253 248 449 489 560 158 73 280 87 732
83 l330 -3 3 -362 2 -363 -268 0 c-210 0 -279 -3 -319 -15 -68 -20 -143 -88
-174 -157 -24 -52 -24 -58 -24 -363 l0 -310 383 -3 c295 -2 382 -5 382 -15 0
-6 -23 -183 -50 -391 -28 -209 -50 -383 -50 -388 0 -4 -150 -9 -332 -10 l-333
-3 -3 -987 -2 -988 795 0 795 0 0 2560 0 2560 -2560 0 -2560 0 0 -2560z"/>
</g>
</svg>
