<?xml version="1.0" standalone="no"?>
<!DOCTYPE svg PUBLIC "-//W3C//DTD SVG 20010904//EN"
 "http://www.w3.org/TR/2001/REC-SVG-20010904/DTD/svg10.dtd">
<svg version="1.0" xmlns="http://www.w3.org/2000/svg"
 width="512.000000pt" height="512.000000pt" viewBox="0 0 512.000000 512.000000"
 preserveAspectRatio="xMidYMid meet">

<g transform="translate(0.000000,512.000000) scale(0.100000,-0.100000)"
fill="#000000" stroke="none">
<path d="M78 5099 c-23 -12 -46 -35 -58 -59 -20 -39 -20 -54 -20 -2480 0
-2427 0 -2441 20 -2480 13 -26 34 -47 60 -60 39 -20 53 -20 2480 -20 2427 0
2441 0 2480 20 26 13 47 34 60 60 20 39 20 53 20 2480 0 2427 0 2441 -20 2480
-13 26 -34 47 -60 60 -39 20 -53 20 -2482 20 -2413 -1 -2443 -1 -2480 -21z
m3382 -644 c438 -72 812 -393 951 -817 58 -178 59 -197 59 -1078 0 -662 -3
-821 -15 -896 -82 -507 -490 -917 -995 -999 -138 -22 -1659 -22 -1796 0 -507
82 -917 491 -999 995 -23 142 -22 1672 1 1805 87 504 490 905 994 990 56 10
282 13 890 14 689 1 830 -1 910 -14z"/>
<path d="M1680 4154 c-184 -39 -325 -116 -461 -253 -138 -138 -215 -280 -253
-463 -24 -116 -24 -1640 0 -1756 38 -184 115 -325 253 -463 139 -138 281 -216
463 -253 116 -24 1640 -24 1756 0 335 69 601 316 704 654 l23 75 3 830 c3 912
3 905 -58 1063 -47 122 -106 210 -209 313 -103 103 -191 162 -313 209 -156 60
-150 60 -1035 59 -651 0 -821 -3 -873 -15z m1980 -476 c140 -71 91 -280 -65
-280 -86 0 -145 61 -145 148 0 64 28 110 83 134 54 25 73 25 127 -2z m-855
-147 c388 -103 672 -434 716 -836 51 -464 -237 -890 -696 -1031 -84 -26 -102
-28 -265 -28 -162 0 -181 2 -264 27 -167 52 -298 129 -417 247 -161 160 -255
353 -281 583 -55 484 278 943 760 1048 118 26 331 21 447 -10z"/>
<path d="M2392 3240 c-108 -28 -206 -84 -292 -166 -87 -83 -140 -166 -177
-279 -22 -68 -26 -97 -26 -200 0 -103 4 -132 26 -200 74 -225 258 -398 480
-450 83 -20 235 -19 316 1 226 55 404 223 478 449 22 68 26 97 26 200 0 103
-4 132 -26 200 -37 113 -90 196 -177 279 -169 161 -406 224 -628 166z"/>
</g>
</svg>
