<?xml version="1.0" standalone="no"?>
<!DOCTYPE svg PUBLIC "-//W3C//DTD SVG 20010904//EN"
 "http://www.w3.org/TR/2001/REC-SVG-20010904/DTD/svg10.dtd">
<svg version="1.0" xmlns="http://www.w3.org/2000/svg"
 width="512.000000pt" height="512.000000pt" viewBox="0 0 512.000000 512.000000"
 preserveAspectRatio="xMidYMid meet">

<g transform="translate(0.000000,512.000000) scale(0.100000,-0.100000)"
fill="#000000" stroke="none">
<path d="M78 5099 c-23 -12 -46 -35 -58 -59 -20 -39 -20 -54 -20 -2480 0
-2427 0 -2441 20 -2480 13 -26 34 -47 60 -60 39 -20 53 -20 2480 -20 2427 0
2441 0 2480 20 26 13 47 34 60 60 20 39 20 53 20 2480 0 2427 0 2441 -20 2480
-13 26 -34 47 -60 60 -39 20 -53 20 -2482 20 -2413 -1 -2443 -1 -2480 -21z
m2706 -624 c276 -37 527 -133 772 -296 135 -90 339 -291 437 -429 124 -177
220 -398 269 -623 19 -88 22 -131 22 -312 0 -178 -3 -225 -22 -311 -71 -327
-233 -618 -473 -849 -188 -181 -333 -267 -519 -309 -166 -38 -305 -29 -446 28
-186 75 -327 210 -448 426 -20 36 -36 62 -36 58 0 -25 -292 -1133 -304 -1156
-35 -67 -136 -93 -204 -52 -41 25 -72 76 -72 119 0 46 534 2116 571 2211 125
326 376 542 631 544 91 1 120 -15 156 -86 69 -138 62 -379 -18 -586 -91 -238
-311 -479 -498 -548 -26 -10 -51 -20 -55 -24 -11 -10 19 -149 55 -247 57 -158
181 -309 302 -368 171 -83 383 -40 583 120 232 185 389 427 466 715 29 109 31
125 31 310 1 180 -1 203 -27 303 -65 261 -186 470 -382 663 -191 189 -449 325
-728 386 -86 18 -134 22 -302 23 -174 0 -214 -3 -304 -23 -141 -32 -256 -74
-379 -137 -143 -74 -245 -151 -360 -269 -197 -203 -311 -429 -357 -705 -21
-122 -16 -352 9 -466 38 -171 114 -345 210 -483 103 -148 106 -154 106 -197 0
-106 -123 -180 -219 -131 -83 43 -258 334 -335 555 -67 191 -80 279 -80 516 0
181 3 225 22 315 113 520 437 928 923 1159 179 85 386 145 569 164 91 10 336
5 434 -8z"/>
<path d="M2840 3184 c-120 -81 -217 -241 -270 -448 -22 -87 -25 -116 -11 -116
17 0 137 125 178 186 53 78 77 126 101 204 18 60 39 190 30 190 -2 0 -15 -7
-28 -16z"/>
</g>
</svg>
